# xmcd
# 
# Track frame offsets:
#     182
#     18965
#     31532
#     42780
#     52955
#     75067
#     92642
#     103410
#     127857
#     143182
#     170555
#     174680
#     195510
#     212367
# 
# Disc length: 3106
# 
# Revision: 10
# Processed by: cddbd v1.5.2PL0 Copyright (c) Steve Scherf et al.
# Submitted via: BonkEnc v1.0.6
# 
DISCID=a30c200e
DTITLE=McCartney, Paul  - Ram
DYEAR=1971
DGENRE=Pop
TTITLE0=Too Many People
TTITLE1=3 Legs
TTITLE2=Ram On
TTITLE3=Dear Boy
TTITLE4=Uncle Albert-Admiral Halsey
TTITLE5=Smile Away
TTITLE6=Heart Of The Country
TTITLE7=Monkberry Moon Delight
TTITLE8=Eat At Home
TTITLE9=Long Haired Lady
TTITLE10=Ram On
TTITLE11=The Back Seat Of My Car
TTITLE12=Another Day (Bonus Track) 
TTITLE13=Oh Woman, Oh Why (Bonus Track) 
EXTD=
EXTT0=
EXTT1=
EXTT2=
EXTT3=
EXTT4=
EXTT5=
EXTT6=
EXTT7=
EXTT8=
EXTT9=
EXTT10=
EXTT11=
EXTT12=
EXTT13=
PLAYORDER=
